<svg xmlns="http://www.w3.org/2000/svg" width="20" height="20" viewBox="0 0 20 20" fill="none">
  <path d="M11.2857 2.28571C11.2857 1.57563 10.7101 1 10 1C9.28992 1 8.71429 1.57563 8.71429 2.28571V8.71428H2.28571C1.57563 8.71428 1 9.28992 1 10C1 10.7101 1.57563 11.2857 2.28571 11.2857H8.71429V17.7143C8.71429 18.4244 9.28992 19 10 19C10.7101 19 11.2857 18.4244 11.2857 17.7143V11.2857H17.7143C18.4244 11.2857 19 10.7101 19 10C19 9.28992 18.4244 8.71429 17.7143 8.71429H11.2857V2.28571Z" fill="white"/>
</svg>