<svg xmlns="http://www.w3.org/2000/svg" width="14" height="15" viewBox="0 0 14 15" fill="none">
  <path fill-rule="evenodd" clip-rule="evenodd" d="M12.3381 2.82902C12.3381 2.71532 12.309 2.60353 12.2536 2.50424C12.1982 2.40496 12.1183 2.32147 12.0216 2.26171C11.9249 2.20195 11.8145 2.1679 11.7009 2.16279C11.5873 2.15767 11.4743 2.18166 11.3726 2.23248L6.17459 4.83082H3.66367C3.13276 4.83082 2.62359 5.04172 2.24818 5.41713C1.87277 5.79255 1.66187 6.30171 1.66187 6.83262C1.66187 7.36353 1.87277 7.8727 2.24818 8.24811C2.62359 8.62352 3.13276 8.83442 3.66367 8.83442H3.8505L5.03223 12.3816C5.0765 12.5145 5.16149 12.6302 5.27515 12.7121C5.3888 12.794 5.52536 12.8381 5.66547 12.838H6.33273C6.5097 12.838 6.67943 12.7677 6.80456 12.6426C6.9297 12.5174 7 12.3477 7 12.1708V9.24679L11.3726 11.4328C11.4743 11.4836 11.5873 11.5076 11.7009 11.5025C11.8145 11.4973 11.9249 11.4633 12.0216 11.4035C12.1183 11.3438 12.1982 11.2603 12.2536 11.161C12.309 11.0617 12.3381 10.9499 12.3381 10.8362V2.82902Z" fill="#3730A3"/>
</svg>