<svg xmlns="http://www.w3.org/2000/svg" width="25" height="24" viewBox="0 0 25 24" fill="none">
  <path d="M7.28809 19V17H14.3881C15.4381 17 16.3508 16.6667 17.1261 16C17.9014 15.3333 18.2888 14.5 18.2881 13.5C18.2874 12.5 17.9001 11.6667 17.1261 11C16.3521 10.3333 15.4394 10 14.3881 10H8.08809L10.6881 12.6L9.28809 14L4.28809 9L9.28809 4L10.6881 5.4L8.08809 8H14.3881C16.0048 8 17.3924 8.525 18.5511 9.575C19.7098 10.625 20.2888 11.9333 20.2881 13.5C20.2874 15.0667 19.7084 16.375 18.5511 17.425C17.3938 18.475 16.0061 19 14.3881 19H7.28809Z" fill="#252525"/>
</svg>