<svg width="18" height="19" viewBox="0 0 18 19" fill="none" xmlns="http://www.w3.org/2000/svg">
<path d="M14.2503 8.90991H5.87281L9.53281 5.24991C9.82531 4.95741 9.82531 4.47741 9.53281 4.18491C9.46342 4.11538 9.38101 4.06022 9.29028 4.02258C9.19955 3.98495 9.10229 3.96558 9.00406 3.96558C8.90583 3.96558 8.80857 3.98495 8.71784 4.02258C8.62711 4.06022 8.54469 4.11538 8.47531 4.18491L3.53281 9.12741C3.46328 9.19679 3.40812 9.27921 3.37049 9.36994C3.33285 9.46067 3.31348 9.55793 3.31348 9.65616C3.31348 9.75438 3.33285 9.85165 3.37049 9.94238C3.40812 10.0331 3.46328 10.1155 3.53281 10.1849L8.47531 15.1274C8.54475 15.1968 8.62718 15.2519 8.7179 15.2895C8.80863 15.3271 8.90586 15.3464 9.00406 15.3464C9.10226 15.3464 9.19949 15.3271 9.29022 15.2895C9.38094 15.2519 9.46337 15.1968 9.53281 15.1274C9.60225 15.058 9.65733 14.9755 9.6949 14.8848C9.73248 14.7941 9.75183 14.6969 9.75183 14.5987C9.75183 14.5005 9.73248 14.4032 9.6949 14.3125C9.65733 14.2218 9.60225 14.1393 9.53281 14.0699L5.87281 10.4099H14.2503C14.6628 10.4099 15.0003 10.0724 15.0003 9.65991C15.0003 9.24741 14.6628 8.90991 14.2503 8.90991Z" fill="#60696F"/>
</svg>
