<svg width="19" height="19" viewBox="0 0 19 19" fill="none" xmlns="http://www.w3.org/2000/svg">
<path d="M14.8958 8.625H6.51832L10.1783 4.965C10.4708 4.6725 10.4708 4.1925 10.1783 3.9C10.1089 3.83047 10.0265 3.77531 9.93579 3.73767C9.84506 3.70004 9.74779 3.68066 9.64957 3.68066C9.55134 3.68066 9.45408 3.70004 9.36335 3.73767C9.27262 3.77531 9.1902 3.83047 9.12082 3.9L4.17832 8.8425C4.10879 8.91188 4.05363 8.9943 4.01599 9.08503C3.97836 9.17576 3.95898 9.27302 3.95898 9.37125C3.95898 9.46947 3.97836 9.56673 4.01599 9.65746C4.05363 9.74819 4.10879 9.83061 4.17832 9.9L9.12082 14.8425C9.19025 14.9119 9.27269 14.967 9.36341 15.0046C9.45413 15.0422 9.55137 15.0615 9.64957 15.0615C9.74777 15.0615 9.845 15.0422 9.93573 15.0046C10.0264 14.967 10.1089 14.9119 10.1783 14.8425C10.2478 14.7731 10.3028 14.6906 10.3404 14.5999C10.378 14.5092 10.3973 14.4119 10.3973 14.3137C10.3973 14.2155 10.378 14.1183 10.3404 14.0276C10.3028 13.9369 10.2478 13.8544 10.1783 13.785L6.51832 10.125H14.8958C15.3083 10.125 15.6458 9.7875 15.6458 9.375C15.6458 8.9625 15.3083 8.625 14.8958 8.625Z" fill="#60696F"/>
</svg>
