<svg xmlns="http://www.w3.org/2000/svg" width="14" height="15" viewBox="0 0 14 15" fill="none">
  <path d="M5.46408 1.8125C4.82708 1.8125 4.32192 1.8125 3.91533 1.84575C3.49883 1.87958 3.14708 1.95075 2.82567 2.11408C2.30416 2.37989 1.88023 2.80403 1.61467 3.32567C1.45075 3.6465 1.37958 3.99883 1.34575 4.41533C1.3125 4.82192 1.3125 5.32708 1.3125 5.96408V9.03592C1.3125 9.67292 1.3125 10.1781 1.34575 10.5847C1.37958 11.0012 1.45075 11.3529 1.61408 11.6749C1.87999 12.1962 2.30412 12.6199 2.82567 12.8853C3.1465 13.0492 3.49883 13.1204 3.91533 13.1543C4.32192 13.1875 4.82708 13.1875 5.46408 13.1875H8.53592C9.17292 13.1875 9.67808 13.1875 10.0847 13.1543C10.5012 13.1204 10.8529 13.0492 11.1749 12.8859C11.6961 12.6202 12.1198 12.1962 12.3853 11.6749C12.5492 11.3529 12.6204 11.0012 12.6543 10.5847C12.6875 10.1781 12.6875 9.67292 12.6875 9.03592V5.96408C12.6875 5.32708 12.6875 4.82192 12.6543 4.41533C12.6204 3.99883 12.5492 3.64708 12.3859 3.32567C12.1203 2.80425 11.6963 2.38032 11.1749 2.11467C10.8529 1.95075 10.5012 1.87958 10.0847 1.84575C9.67808 1.8125 9.17292 1.8125 8.53592 1.8125H5.46408ZM4.89825 8.98925C4.93251 8.94306 4.97553 8.90408 5.02486 8.87454C5.0742 8.84499 5.12887 8.82546 5.18576 8.81707C5.24264 8.80867 5.30063 8.81157 5.35639 8.8256C5.41216 8.83963 5.46461 8.86451 5.51075 8.89883C5.93542 9.21383 6.44817 9.39583 7 9.39583C7.55183 9.39583 8.06458 9.21325 8.48925 8.89883C8.53525 8.86304 8.58794 8.8368 8.64422 8.82165C8.7005 8.8065 8.75924 8.80274 8.81699 8.81061C8.87474 8.81848 8.93034 8.83781 8.98052 8.86746C9.0307 8.89712 9.07444 8.9365 9.10919 8.98329C9.14394 9.03009 9.16898 9.08335 9.18286 9.13996C9.19673 9.19657 9.19916 9.25538 9.18998 9.31294C9.18081 9.3705 9.16024 9.42565 9.12946 9.47514C9.09868 9.52464 9.05832 9.56749 9.01075 9.60117C8.4301 10.0351 7.72487 10.27 7 10.2708C6.27513 10.27 5.5699 10.0351 4.98925 9.60117C4.89614 9.53199 4.83431 9.42867 4.81736 9.31393C4.8004 9.19918 4.82912 9.0824 4.89825 8.98925ZM5.97917 6.33333V6.625C5.97917 6.74103 5.93307 6.85231 5.85103 6.93436C5.76898 7.01641 5.6577 7.0625 5.54167 7.0625C5.42563 7.0625 5.31435 7.01641 5.23231 6.93436C5.15026 6.85231 5.10417 6.74103 5.10417 6.625V6.33333C5.10417 6.2173 5.15026 6.10602 5.23231 6.02397C5.31435 5.94193 5.42563 5.89583 5.54167 5.89583C5.6577 5.89583 5.76898 5.94193 5.85103 6.02397C5.93307 6.10602 5.97917 6.2173 5.97917 6.33333ZM8.45833 5.89583C8.57437 5.89583 8.68565 5.94193 8.76769 6.02397C8.84974 6.10602 8.89583 6.2173 8.89583 6.33333V6.625C8.89583 6.74103 8.84974 6.85231 8.76769 6.93436C8.68565 7.01641 8.57437 7.0625 8.45833 7.0625C8.3423 7.0625 8.23102 7.01641 8.14897 6.93436C8.06693 6.85231 8.02083 6.74103 8.02083 6.625V6.33333C8.02083 6.2173 8.06693 6.10602 8.14897 6.02397C8.23102 5.94193 8.3423 5.89583 8.45833 5.89583Z" fill="#0093EBE5"/>
</svg>