<svg width="20" height="21" viewBox="0 0 20 21" fill="none" xmlns="http://www.w3.org/2000/svg">
<g id="icon-park-solid:check-one">
<g id="Mask group">
<mask id="mask0_2016_3586" style="mask-type:luminance" maskUnits="userSpaceOnUse" x="0" y="1" width="20" height="19">
<g id="Group">
<g id="Group_2">
<path id="Vector" d="M10.0001 18.8327C11.0946 18.834 12.1787 18.6191 13.1899 18.2002C14.2011 17.7813 15.1196 17.1668 15.8926 16.3919C16.6675 15.6189 17.2821 14.7004 17.701 13.6892C18.1198 12.6779 18.3348 11.5939 18.3334 10.4994C18.3348 9.40481 18.1198 8.32078 17.701 7.30956C17.2821 6.29834 16.6675 5.37984 15.8926 4.60686C15.1196 3.83192 14.2011 3.21736 13.1899 2.79849C12.1787 2.37961 11.0946 2.16467 10.0001 2.16602C8.90554 2.16467 7.82152 2.37961 6.81029 2.79849C5.79907 3.21736 4.88058 3.83192 4.10759 4.60686C3.33265 5.37984 2.7181 6.29834 2.29922 7.30956C1.88034 8.32078 1.6654 9.40481 1.66675 10.4994C1.6654 11.5939 1.88034 12.6779 2.29922 13.6892C2.7181 14.7004 3.33265 15.6189 4.10759 16.3919C4.88058 17.1668 5.79907 17.7813 6.81029 18.2002C7.82152 18.6191 8.90554 18.834 10.0001 18.8327Z" fill="white" stroke="white" stroke-width="1.66667" stroke-linejoin="round"/>
<path id="Vector_2" d="M6.66699 10.5L9.16699 13L14.167 8" stroke="black" stroke-width="1.66667" stroke-linecap="round" stroke-linejoin="round"/>
</g>
</g>
</mask>
<g mask="url(#mask0_2016_3586)">
<path id="Vector_3" d="M0.000244141 0.5H20.0002V20.5H0.000244141V0.5Z" fill="#1A8538"/>
</g>
</g>
</g>
</svg>
