<svg width="24" height="25" viewBox="0 0 24 25" fill="none" xmlns="http://www.w3.org/2000/svg">
<path d="M19 3.5H5C3.9 3.5 3 4.4 3 5.5V19.5C3 20.6 3.9 21.5 5 21.5H19C20.1 21.5 21 20.6 21 19.5V5.5C21 4.4 20.1 3.5 19 3.5ZM10.71 16.79C10.6175 16.8827 10.5076 16.9563 10.3866 17.0064C10.2657 17.0566 10.136 17.0824 10.005 17.0824C9.87403 17.0824 9.74435 17.0566 9.62338 17.0064C9.5024 16.9563 9.39251 16.8827 9.3 16.79L5.71 13.2C5.61742 13.1074 5.54398 12.9975 5.49387 12.8765C5.44377 12.7556 5.41798 12.6259 5.41798 12.495C5.41798 12.3641 5.44377 12.2344 5.49387 12.1135C5.54398 11.9925 5.61742 11.8826 5.71 11.79C5.80258 11.6974 5.91249 11.624 6.03346 11.5739C6.15442 11.5238 6.28407 11.498 6.415 11.498C6.54593 11.498 6.67558 11.5238 6.79654 11.5739C6.91751 11.624 7.02742 11.6974 7.12 11.79L10 14.67L16.88 7.79C17.067 7.60302 17.3206 7.49798 17.585 7.49798C17.8494 7.49798 18.103 7.60302 18.29 7.79C18.477 7.97698 18.582 8.23057 18.582 8.495C18.582 8.75943 18.477 9.01302 18.29 9.2L10.71 16.79V16.79Z" fill="#057E6F"/>
</svg>
