<svg width="83" height="83" viewBox="0 0 83 83" fill="none" xmlns="http://www.w3.org/2000/svg">
<g id="mingcute:doc-fill">
<g id="Group">
<path id="Vector" fill-rule="evenodd" clip-rule="evenodd" d="M41.4997 6.91699V29.3962C41.4997 30.772 42.0462 32.0914 43.0191 33.0643C43.9919 34.0371 45.3114 34.5837 46.6872 34.5837H69.1663V69.167C69.1663 71.0014 68.4376 72.7607 67.1405 74.0578C65.8434 75.3549 64.0841 76.0837 62.2497 76.0837H20.7497C18.9153 76.0837 17.156 75.3549 15.8589 74.0578C14.5617 72.7607 13.833 71.0014 13.833 69.167V13.8337C13.833 11.9992 14.5617 10.24 15.8589 8.94284C17.156 7.64571 18.9153 6.91699 20.7497 6.91699H41.4997ZM48.6377 43.7448L46.6872 48.9427L45.0618 44.6094C43.8271 41.317 39.1722 41.317 37.9376 44.6094L36.3122 48.9427L34.3617 43.7448C34.0229 42.9095 33.3715 42.2395 32.5461 41.8775C31.7207 41.5154 30.7865 41.4899 29.9426 41.8064C29.0986 42.1229 28.4116 42.7563 28.0278 43.5718C27.644 44.3874 27.5937 45.3205 27.8877 46.1725L32.7501 59.1413C33.9847 62.4336 38.6396 62.4336 39.8743 59.1413L41.4997 54.808L43.1251 59.1413C44.3597 62.4336 49.0146 62.4336 50.2493 59.1413L55.1117 46.1725C55.4057 45.3205 55.3554 44.3874 54.9716 43.5718C54.5878 42.7563 53.9007 42.1229 53.0568 41.8064C52.2128 41.4899 51.2787 41.5154 50.4533 41.8775C49.6279 42.2395 48.9764 42.9095 48.6377 43.7448ZM48.4163 7.0657C49.7266 7.3436 50.928 7.99596 51.8747 8.94358L67.1398 24.2087C68.0874 25.1553 68.7397 26.3567 69.0176 27.667H48.4163V7.0657Z" fill="#60696F"/>
</g>
</g>
</svg>
