<svg xmlns="http://www.w3.org/2000/svg" width="21" height="21" viewBox="0 0 21 21" fill="none">
  <path d="M4.22506 18.0899H16.7751C18.0584 18.0899 18.8584 16.6982 18.2167 15.5899L11.9417 4.74824C11.3001 3.63991 9.70006 3.63991 9.05839 4.74824L2.78339 15.5899C2.14173 16.6982 2.94173 18.0899 4.22506 18.0899ZM10.5001 12.2566C10.0417 12.2566 9.66673 11.8816 9.66673 11.4232V9.75658C9.66673 9.29824 10.0417 8.92324 10.5001 8.92324C10.9584 8.92324 11.3334 9.29824 11.3334 9.75658V11.4232C11.3334 11.8816 10.9584 12.2566 10.5001 12.2566ZM11.3334 15.5899H9.66673V13.9232H11.3334V15.5899Z" fill="#B80037"/>
</svg>