<svg xmlns="http://www.w3.org/2000/svg" width="25" height="24" viewBox="0 0 25 24" fill="none">
  <path d="M17.2881 19V17H10.1881C9.13809 17 8.22542 16.6667 7.45009 16C6.67475 15.3333 6.28742 14.5 6.28809 13.5C6.28875 12.5 6.67609 11.6667 7.45009 11C8.22409 10.3333 9.13675 10 10.1881 10H16.4881L13.8881 12.6L15.2881 14L20.2881 9L15.2881 4L13.8881 5.4L16.4881 8H10.1881C8.57142 8 7.18375 8.525 6.02509 9.575C4.86642 10.625 4.28742 11.9333 4.28809 13.5C4.28875 15.0667 4.86775 16.375 6.02509 17.425C7.18242 18.475 8.57009 19 10.1881 19H17.2881Z" fill="#252525"/>
</svg>