<svg width="18" height="18" viewBox="0 0 18 18" fill="none" xmlns="http://www.w3.org/2000/svg">
<g id="Home">
<path id="Vector" d="M14.9259 7.51756C14.9259 7.32111 14.8479 7.1327 14.709 6.99378C14.5701 6.85487 14.3816 6.77682 14.1852 6.77682C13.9887 6.77682 13.8003 6.85487 13.6614 6.99378C13.5225 7.1327 13.4445 7.32111 13.4445 7.51756H14.9259ZM4.55556 7.51756C4.55556 7.32111 4.47752 7.1327 4.3386 6.99378C4.19969 6.85487 4.01128 6.77682 3.81482 6.77682C3.61836 6.77682 3.42995 6.85487 3.29104 6.99378C3.15212 7.1327 3.07408 7.32111 3.07408 7.51756H4.55556ZM15.143 9.52275C15.2827 9.65768 15.4698 9.73234 15.664 9.73066C15.8582 9.72897 16.044 9.65107 16.1814 9.51373C16.3187 9.37639 16.3966 9.1906 16.3983 8.99638C16.4 8.80216 16.3253 8.61505 16.1904 8.47534L15.143 9.52275ZM9.00001 2.33238L9.52371 1.80868C9.3848 1.66981 9.19642 1.5918 9.00001 1.5918C8.80359 1.5918 8.61521 1.66981 8.4763 1.80868L9.00001 2.33238ZM1.80964 8.47534C1.73889 8.54367 1.68246 8.62541 1.64363 8.71578C1.60481 8.80616 1.58438 8.90336 1.58352 9.00171C1.58267 9.10007 1.60141 9.19761 1.63866 9.28864C1.6759 9.37968 1.7309 9.46238 1.80045 9.53193C1.87 9.60148 1.95271 9.65648 2.04374 9.69373C2.13478 9.73097 2.23232 9.74972 2.33067 9.74886C2.42903 9.74801 2.52623 9.72757 2.6166 9.68875C2.70698 9.64993 2.78871 9.5935 2.85704 9.52275L1.80964 8.47534ZM5.2963 16.4065H12.7037V14.925H5.2963V16.4065ZM14.9259 14.1842V7.51756H13.4445V14.1842H14.9259ZM4.55556 14.1842V7.51756H3.07408V14.1842H4.55556ZM16.1904 8.47534L9.52371 1.80868L8.4763 2.85608L15.143 9.52275L16.1904 8.47534ZM8.4763 1.80868L1.80964 8.47534L2.85704 9.52275L9.52371 2.85608L8.4763 1.80868ZM12.7037 16.4065C13.2931 16.4065 13.8583 16.1723 14.2751 15.7556C14.6918 15.3388 14.9259 14.7736 14.9259 14.1842H13.4445C13.4445 14.3807 13.3664 14.5691 13.2275 14.708C13.0886 14.8469 12.9002 14.925 12.7037 14.925V16.4065ZM5.2963 14.925C5.09985 14.925 4.91144 14.8469 4.77252 14.708C4.6336 14.5691 4.55556 14.3807 4.55556 14.1842H3.07408C3.07408 14.7736 3.30821 15.3388 3.72495 15.7556C4.1417 16.1723 4.70693 16.4065 5.2963 16.4065V14.925Z" fill="#4D5358"/>
</g>
</svg>
