<svg width="32" height="42" viewBox="0 0 32 42" fill="none" xmlns="http://www.w3.org/2000/svg">
<g id="Lock Icon">
<path id="Vector" d="M4 42C2.9 42 1.95867 41.6087 1.176 40.826C0.393333 40.0433 0.00133333 39.1013 0 38V18C0 16.9 0.392 15.9587 1.176 15.176C1.96 14.3933 2.90133 14.0013 4 14H6V10C6 7.23333 6.97533 4.87533 8.926 2.926C10.8767 0.976668 13.2347 0.0013347 16 1.36519e-06C18.7653 -0.00133197 21.124 0.974001 23.076 2.926C25.028 4.878 26.0027 7.236 26 10V14H28C29.1 14 30.042 14.392 30.826 15.176C31.61 15.96 32.0013 16.9013 32 18V38C32 39.1 31.6087 40.042 30.826 40.826C30.0433 41.61 29.1013 42.0013 28 42H4ZM16 32C17.1 32 18.042 31.6087 18.826 30.826C19.61 30.0433 20.0013 29.1013 20 28C19.9987 26.8987 19.6073 25.9573 18.826 25.176C18.0447 24.3947 17.1027 24.0027 16 24C14.8973 23.9973 13.956 24.3893 13.176 25.176C12.396 25.9627 12.004 26.904 12 28C11.996 29.096 12.388 30.038 13.176 30.826C13.964 31.614 14.9053 32.0053 16 32ZM10 14H22V10C22 8.33333 21.4167 6.91667 20.25 5.75C19.0833 4.58333 17.6667 4 16 4C14.3333 4 12.9167 4.58333 11.75 5.75C10.5833 6.91667 10 8.33333 10 10V14Z" fill="#252525"/>
</g>
</svg>
