<svg xmlns="http://www.w3.org/2000/svg" width="143" height="32" viewBox="0 0 143 32" fill="none">
  <path d="M2.92 24.0899L0 7.88992H3.06L4.8 18.8899L6.42 7.88992H9.66L6.7 24.0899H2.92Z" fill="#252525"/>
  <path d="M11.2873 24.0899V7.88992H18.5673V10.3299H14.8673V14.3499H17.6873V16.8299H14.8673V21.6699H18.6073V24.0899H11.2873Z" fill="#252525"/>
  <path d="M21.6927 24.0899V10.5499H19.2527V7.88992H27.7127V10.5499H25.2927V24.0899H21.6927Z" fill="#252525"/>
  <path d="M29.1389 24.0899V7.88992H36.4189V10.3299H32.7189V14.3499H35.5389V16.8299H32.7189V21.6699H36.4589V24.0899H29.1389Z" fill="#252525"/>
  <path d="M38.0842 24.0899V7.88992H42.5442C43.6376 7.88992 44.5842 8.00992 45.3842 8.24992C46.1842 8.48992 46.8042 8.92325 47.2442 9.54992C47.6976 10.1633 47.9242 11.0366 47.9242 12.1699C47.9242 12.8366 47.8709 13.4299 47.7642 13.9499C47.6576 14.4699 47.4576 14.9233 47.1642 15.3099C46.8842 15.6833 46.4776 15.9966 45.9442 16.2499L48.1642 24.0899H44.4642L42.6842 16.8299H41.6642V24.0899H38.0842ZM41.6642 14.7699H42.6642C43.1709 14.7699 43.5642 14.6833 43.8442 14.5099C44.1242 14.3233 44.3176 14.0633 44.4242 13.7299C44.5442 13.3833 44.6042 12.9699 44.6042 12.4899C44.6042 11.7966 44.4776 11.2566 44.2242 10.8699C43.9709 10.4833 43.5042 10.2899 42.8242 10.2899H41.6642V14.7699Z" fill="#252525"/>
  <path d="M49.2964 24.0899L52.3564 7.88992H56.4364L59.4564 24.0899H56.1564L55.6164 20.6699H53.2364L52.6764 24.0899H49.2964ZM53.5564 18.5299H55.2764L54.4164 12.2099L53.5564 18.5299Z" fill="#252525"/>
  <path d="M61.092 24.0899V7.88992H63.612L66.932 15.6899V7.88992H69.892V24.0899H67.472L64.152 15.6899V24.0899H61.092Z" fill="#252525"/>
  <path d="M81.7202 24.3299C80.7068 24.3299 79.8602 24.1499 79.1802 23.7899C78.5002 23.4299 77.9868 22.8766 77.6402 22.1299C77.2935 21.3699 77.1002 20.3899 77.0602 19.1899L80.1202 18.7299C80.1335 19.4233 80.1935 19.9833 80.3002 20.4099C80.4202 20.8366 80.5802 21.1433 80.7802 21.3299C80.9935 21.5166 81.2468 21.6099 81.5402 21.6099C81.9135 21.6099 82.1535 21.4833 82.2602 21.2299C82.3802 20.9766 82.4402 20.7099 82.4402 20.4299C82.4402 19.7633 82.2802 19.2033 81.9602 18.7499C81.6402 18.2833 81.2068 17.8166 80.6602 17.3499L79.2602 16.1299C78.6468 15.6099 78.1268 15.0233 77.7002 14.3699C77.2868 13.7033 77.0802 12.8833 77.0802 11.9099C77.0802 10.5366 77.4868 9.48992 78.3002 8.76992C79.1135 8.03659 80.2202 7.66992 81.6202 7.66992C82.4868 7.66992 83.1802 7.81659 83.7002 8.10992C84.2335 8.40326 84.6335 8.78992 84.9002 9.26992C85.1802 9.73659 85.3668 10.2366 85.4602 10.7699C85.5668 11.2899 85.6268 11.7899 85.6402 12.2699L82.5602 12.6499C82.5468 12.1699 82.5135 11.7566 82.4602 11.4099C82.4202 11.0499 82.3268 10.7766 82.1802 10.5899C82.0335 10.3899 81.8068 10.2899 81.5002 10.2899C81.1668 10.2899 80.9202 10.4299 80.7602 10.7099C80.6135 10.9899 80.5402 11.2699 80.5402 11.5499C80.5402 12.1499 80.6802 12.6433 80.9602 13.0299C81.2535 13.4033 81.6335 13.7966 82.1002 14.2099L83.4402 15.3899C84.1468 15.9899 84.7402 16.6699 85.2202 17.4299C85.7135 18.1899 85.9602 19.1299 85.9602 20.2499C85.9602 21.0099 85.7868 21.7033 85.4402 22.3299C85.0935 22.9433 84.6002 23.4299 83.9602 23.7899C83.3335 24.1499 82.5868 24.3299 81.7202 24.3299Z" fill="#252525"/>
  <path d="M87.7136 24.0899V7.88992H91.2936V24.0899H87.7136Z" fill="#252525"/>
  <path d="M98.0092 24.3299C96.9959 24.3299 96.1492 24.1499 95.4692 23.7899C94.7892 23.4299 94.2759 22.8766 93.9292 22.1299C93.5826 21.3699 93.3892 20.3899 93.3492 19.1899L96.4092 18.7299C96.4226 19.4233 96.4826 19.9833 96.5892 20.4099C96.7092 20.8366 96.8692 21.1433 97.0692 21.3299C97.2826 21.5166 97.5359 21.6099 97.8292 21.6099C98.2026 21.6099 98.4426 21.4833 98.5492 21.2299C98.6692 20.9766 98.7292 20.7099 98.7292 20.4299C98.7292 19.7633 98.5692 19.2033 98.2492 18.7499C97.9292 18.2833 97.4959 17.8166 96.9492 17.3499L95.5492 16.1299C94.9359 15.6099 94.4159 15.0233 93.9892 14.3699C93.5759 13.7033 93.3692 12.8833 93.3692 11.9099C93.3692 10.5366 93.7759 9.48992 94.5892 8.76992C95.4025 8.03659 96.5092 7.66992 97.9092 7.66992C98.7759 7.66992 99.4692 7.81659 99.9892 8.10992C100.523 8.40326 100.923 8.78992 101.189 9.26992C101.469 9.73659 101.656 10.2366 101.749 10.7699C101.856 11.2899 101.916 11.7899 101.929 12.2699L98.8492 12.6499C98.8359 12.1699 98.8026 11.7566 98.7492 11.4099C98.7092 11.0499 98.6159 10.7766 98.4692 10.5899C98.3225 10.3899 98.0959 10.2899 97.7892 10.2899C97.4559 10.2899 97.2092 10.4299 97.0492 10.7099C96.9025 10.9899 96.8292 11.2699 96.8292 11.5499C96.8292 12.1499 96.9692 12.6433 97.2492 13.0299C97.5426 13.4033 97.9226 13.7966 98.3892 14.2099L99.7292 15.3899C100.436 15.9899 101.029 16.6699 101.509 17.4299C102.003 18.1899 102.249 19.1299 102.249 20.2499C102.249 21.0099 102.076 21.7033 101.729 22.3299C101.383 22.9433 100.889 23.4299 100.249 23.7899C99.6226 24.1499 98.8759 24.3299 98.0092 24.3299Z" fill="#252525"/>
  <path d="M105.443 24.0899V10.5499H103.003V7.88992H111.463V10.5499H109.043V24.0899H105.443Z" fill="#252525"/>
  <path d="M112.889 24.0899V7.88992H120.169V10.3299H116.469V14.3499H119.289V16.8299H116.469V21.6699H120.209V24.0899H112.889Z" fill="#252525"/>
  <path d="M121.834 24.0899V7.88992H126.294C127.388 7.88992 128.334 8.00992 129.134 8.24992C129.934 8.48992 130.554 8.92325 130.994 9.54992C131.448 10.1633 131.674 11.0366 131.674 12.1699C131.674 12.8366 131.621 13.4299 131.514 13.9499C131.408 14.4699 131.208 14.9233 130.914 15.3099C130.634 15.6833 130.228 15.9966 129.694 16.2499L131.914 24.0899H128.214L126.434 16.8299H125.414V24.0899H121.834ZM125.414 14.7699H126.414C126.921 14.7699 127.314 14.6833 127.594 14.5099C127.874 14.3233 128.068 14.0633 128.174 13.7299C128.294 13.3833 128.354 12.9699 128.354 12.4899C128.354 11.7966 128.228 11.2566 127.974 10.8699C127.721 10.4833 127.254 10.2899 126.574 10.2899H125.414V14.7699Z" fill="#252525"/>
  <path d="M138.048 24.3299C137.035 24.3299 136.188 24.1499 135.508 23.7899C134.828 23.4299 134.315 22.8766 133.968 22.1299C133.622 21.3699 133.428 20.3899 133.388 19.1899L136.448 18.7299C136.462 19.4233 136.522 19.9833 136.628 20.4099C136.748 20.8366 136.908 21.1433 137.108 21.3299C137.322 21.5166 137.575 21.6099 137.868 21.6099C138.242 21.6099 138.482 21.4833 138.588 21.2299C138.708 20.9766 138.768 20.7099 138.768 20.4299C138.768 19.7633 138.608 19.2033 138.288 18.7499C137.968 18.2833 137.535 17.8166 136.988 17.3499L135.588 16.1299C134.975 15.6099 134.455 15.0233 134.028 14.3699C133.615 13.7033 133.408 12.8833 133.408 11.9099C133.408 10.5366 133.815 9.48992 134.628 8.76992C135.442 8.03659 136.548 7.66992 137.948 7.66992C138.815 7.66992 139.508 7.81659 140.028 8.10992C140.562 8.40326 140.962 8.78992 141.228 9.26992C141.508 9.73659 141.695 10.2366 141.788 10.7699C141.895 11.2899 141.955 11.7899 141.968 12.2699L138.888 12.6499C138.875 12.1699 138.842 11.7566 138.788 11.4099C138.748 11.0499 138.655 10.7766 138.508 10.5899C138.362 10.3899 138.135 10.2899 137.828 10.2899C137.495 10.2899 137.248 10.4299 137.088 10.7099C136.942 10.9899 136.868 11.2699 136.868 11.5499C136.868 12.1499 137.008 12.6433 137.288 13.0299C137.582 13.4033 137.962 13.7966 138.428 14.2099L139.768 15.3899C140.475 15.9899 141.068 16.6699 141.548 17.4299C142.042 18.1899 142.288 19.1299 142.288 20.2499C142.288 21.0099 142.115 21.7033 141.768 22.3299C141.422 22.9433 140.928 23.4299 140.288 23.7899C139.662 24.1499 138.915 24.3299 138.048 24.3299Z" fill="#252525"/>
</svg>