<svg width="144" height="18" viewBox="0 0 144 18" fill="none" xmlns="http://www.w3.org/2000/svg">
<g id="Logo">
<g id="Veteran Sisters">
<path d="M3.77596 17.0899L0.855957 0.889921H3.91596L5.65596 11.8899L7.27596 0.889921H10.516L7.55596 17.0899H3.77596Z" fill="#FAFAFA"/>
<path d="M12.1433 17.0899V0.889921H19.4233V3.32992H15.7233V7.34992H18.5433V9.82992H15.7233V14.6699H19.4633V17.0899H12.1433Z" fill="#FAFAFA"/>
<path d="M22.5486 17.0899V3.54992H20.1086V0.889921H28.5686V3.54992H26.1486V17.0899H22.5486Z" fill="#FAFAFA"/>
<path d="M29.9949 17.0899V0.889921H37.2749V3.32992H33.5749V7.34992H36.3949V9.82992H33.5749V14.6699H37.3149V17.0899H29.9949Z" fill="#FAFAFA"/>
<path d="M38.9402 17.0899V0.889921H43.4002C44.4935 0.889921 45.4402 1.00992 46.2402 1.24992C47.0402 1.48992 47.6602 1.92325 48.1002 2.54992C48.5535 3.16325 48.7802 4.03659 48.7802 5.16992C48.7802 5.83659 48.7268 6.42992 48.6202 6.94992C48.5135 7.46992 48.3135 7.92326 48.0202 8.30992C47.7402 8.68326 47.3335 8.99659 46.8002 9.24992L49.0202 17.0899H45.3202L43.5402 9.82992H42.5202V17.0899H38.9402ZM42.5202 7.76992H43.5202C44.0268 7.76992 44.4202 7.68326 44.7002 7.50992C44.9802 7.32326 45.1735 7.06326 45.2802 6.72992C45.4002 6.38326 45.4602 5.96992 45.4602 5.48992C45.4602 4.79659 45.3335 4.25659 45.0802 3.86992C44.8268 3.48326 44.3602 3.28992 43.6802 3.28992H42.5202V7.76992Z" fill="#FAFAFA"/>
<path d="M50.1524 17.0899L53.2124 0.889921H57.2924L60.3124 17.0899H57.0124L56.4724 13.6699H54.0924L53.5324 17.0899H50.1524ZM54.4124 11.5299H56.1324L55.2724 5.20992L54.4124 11.5299Z" fill="#FAFAFA"/>
<path d="M61.948 17.0899V0.889921H64.468L67.788 8.68992V0.889921H70.748V17.0899H68.328L65.008 8.68992V17.0899H61.948Z" fill="#FAFAFA"/>
<path d="M82.5761 17.3299C81.5628 17.3299 80.7161 17.1499 80.0361 16.7899C79.3561 16.4299 78.8428 15.8766 78.4961 15.1299C78.1495 14.3699 77.9561 13.3899 77.9161 12.1899L80.9761 11.7299C80.9894 12.4233 81.0494 12.9833 81.1561 13.4099C81.2761 13.8366 81.4361 14.1433 81.6361 14.3299C81.8494 14.5166 82.1028 14.6099 82.3961 14.6099C82.7694 14.6099 83.0094 14.4833 83.1161 14.2299C83.2361 13.9766 83.2961 13.7099 83.2961 13.4299C83.2961 12.7633 83.1361 12.2033 82.8161 11.7499C82.4961 11.2833 82.0628 10.8166 81.5161 10.3499L80.1161 9.12992C79.5028 8.60992 78.9828 8.02326 78.5561 7.36992C78.1428 6.70326 77.9361 5.88326 77.9361 4.90992C77.9361 3.53659 78.3428 2.48992 79.1561 1.76992C79.9694 1.03659 81.0761 0.669922 82.4761 0.669922C83.3428 0.669922 84.0361 0.816589 84.5561 1.10992C85.0894 1.40326 85.4894 1.78992 85.7561 2.26992C86.0361 2.73659 86.2228 3.23659 86.3161 3.76992C86.4228 4.28992 86.4828 4.78992 86.4961 5.26992L83.4161 5.64992C83.4028 5.16992 83.3695 4.75659 83.3161 4.40992C83.2761 4.04992 83.1828 3.77659 83.0361 3.58992C82.8894 3.38992 82.6628 3.28992 82.3561 3.28992C82.0228 3.28992 81.7761 3.42992 81.6161 3.70992C81.4694 3.98992 81.3961 4.26992 81.3961 4.54992C81.3961 5.14992 81.5361 5.64326 81.8161 6.02992C82.1095 6.40326 82.4894 6.79659 82.9561 7.20992L84.2961 8.38992C85.0028 8.98992 85.5961 9.66992 86.0761 10.4299C86.5694 11.1899 86.8161 12.1299 86.8161 13.2499C86.8161 14.0099 86.6428 14.7033 86.2961 15.3299C85.9494 15.9433 85.4561 16.4299 84.8161 16.7899C84.1895 17.1499 83.4428 17.3299 82.5761 17.3299Z" fill="#FAFAFA"/>
<path d="M88.5695 17.0899V0.889921H92.1496V17.0899H88.5695Z" fill="#FAFAFA"/>
<path d="M98.8652 17.3299C97.8518 17.3299 97.0052 17.1499 96.3252 16.7899C95.6452 16.4299 95.1318 15.8766 94.7852 15.1299C94.4385 14.3699 94.2452 13.3899 94.2052 12.1899L97.2652 11.7299C97.2785 12.4233 97.3385 12.9833 97.4452 13.4099C97.5652 13.8366 97.7252 14.1433 97.9252 14.3299C98.1385 14.5166 98.3918 14.6099 98.6852 14.6099C99.0585 14.6099 99.2985 14.4833 99.4052 14.2299C99.5252 13.9766 99.5852 13.7099 99.5852 13.4299C99.5852 12.7633 99.4252 12.2033 99.1052 11.7499C98.7852 11.2833 98.3518 10.8166 97.8052 10.3499L96.4052 9.12992C95.7918 8.60992 95.2718 8.02326 94.8452 7.36992C94.4318 6.70326 94.2252 5.88326 94.2252 4.90992C94.2252 3.53659 94.6318 2.48992 95.4452 1.76992C96.2585 1.03659 97.3652 0.669922 98.7652 0.669922C99.6318 0.669922 100.325 0.816589 100.845 1.10992C101.379 1.40326 101.779 1.78992 102.045 2.26992C102.325 2.73659 102.512 3.23659 102.605 3.76992C102.712 4.28992 102.772 4.78992 102.785 5.26992L99.7052 5.64992C99.6918 5.16992 99.6585 4.75659 99.6052 4.40992C99.5652 4.04992 99.4718 3.77659 99.3252 3.58992C99.1785 3.38992 98.9518 3.28992 98.6452 3.28992C98.3118 3.28992 98.0652 3.42992 97.9052 3.70992C97.7585 3.98992 97.6852 4.26992 97.6852 4.54992C97.6852 5.14992 97.8252 5.64326 98.1052 6.02992C98.3985 6.40326 98.7785 6.79659 99.2452 7.20992L100.585 8.38992C101.292 8.98992 101.885 9.66992 102.365 10.4299C102.859 11.1899 103.105 12.1299 103.105 13.2499C103.105 14.0099 102.932 14.7033 102.585 15.3299C102.239 15.9433 101.745 16.4299 101.105 16.7899C100.479 17.1499 99.7318 17.3299 98.8652 17.3299Z" fill="#FAFAFA"/>
<path d="M106.299 17.0899V3.54992H103.859V0.889921H112.319V3.54992H109.899V17.0899H106.299Z" fill="#FAFAFA"/>
<path d="M113.745 17.0899V0.889921H121.025V3.32992H117.325V7.34992H120.145V9.82992H117.325V14.6699H121.065V17.0899H113.745Z" fill="#FAFAFA"/>
<path d="M122.69 17.0899V0.889921H127.15C128.244 0.889921 129.19 1.00992 129.99 1.24992C130.79 1.48992 131.41 1.92325 131.85 2.54992C132.304 3.16325 132.53 4.03659 132.53 5.16992C132.53 5.83659 132.477 6.42992 132.37 6.94992C132.264 7.46992 132.064 7.92326 131.77 8.30992C131.49 8.68326 131.084 8.99659 130.55 9.24992L132.77 17.0899H129.07L127.29 9.82992H126.27V17.0899H122.69ZM126.27 7.76992H127.27C127.777 7.76992 128.17 7.68326 128.45 7.50992C128.73 7.32326 128.924 7.06326 129.03 6.72992C129.15 6.38326 129.21 5.96992 129.21 5.48992C129.21 4.79659 129.084 4.25659 128.83 3.86992C128.577 3.48326 128.11 3.28992 127.43 3.28992H126.27V7.76992Z" fill="#FAFAFA"/>
<path d="M138.904 17.3299C137.891 17.3299 137.044 17.1499 136.364 16.7899C135.684 16.4299 135.171 15.8766 134.824 15.1299C134.478 14.3699 134.284 13.3899 134.244 12.1899L137.304 11.7299C137.318 12.4233 137.378 12.9833 137.484 13.4099C137.604 13.8366 137.764 14.1433 137.964 14.3299C138.178 14.5166 138.431 14.6099 138.724 14.6099C139.098 14.6099 139.338 14.4833 139.444 14.2299C139.564 13.9766 139.624 13.7099 139.624 13.4299C139.624 12.7633 139.464 12.2033 139.144 11.7499C138.824 11.2833 138.391 10.8166 137.844 10.3499L136.444 9.12992C135.831 8.60992 135.311 8.02326 134.884 7.36992C134.471 6.70326 134.264 5.88326 134.264 4.90992C134.264 3.53659 134.671 2.48992 135.484 1.76992C136.298 1.03659 137.404 0.669922 138.804 0.669922C139.671 0.669922 140.364 0.816589 140.884 1.10992C141.418 1.40326 141.818 1.78992 142.084 2.26992C142.364 2.73659 142.551 3.23659 142.644 3.76992C142.751 4.28992 142.811 4.78992 142.824 5.26992L139.744 5.64992C139.731 5.16992 139.698 4.75659 139.644 4.40992C139.604 4.04992 139.511 3.77659 139.364 3.58992C139.218 3.38992 138.991 3.28992 138.684 3.28992C138.351 3.28992 138.104 3.42992 137.944 3.70992C137.798 3.98992 137.724 4.26992 137.724 4.54992C137.724 5.14992 137.864 5.64326 138.144 6.02992C138.438 6.40326 138.818 6.79659 139.284 7.20992L140.624 8.38992C141.331 8.98992 141.924 9.66992 142.404 10.4299C142.898 11.1899 143.144 12.1299 143.144 13.2499C143.144 14.0099 142.971 14.7033 142.624 15.3299C142.278 15.9433 141.784 16.4299 141.144 16.7899C140.518 17.1499 139.771 17.3299 138.904 17.3299Z" fill="#FAFAFA"/>
</g>
</g>
</svg>
