<svg xmlns="http://www.w3.org/2000/svg" width="14" height="15" viewBox="0 0 14 15" fill="none">
  <path d="M6.41665 1.66675C7.54988 1.66657 8.64445 2.07876 9.49608 2.82638C10.3477 3.574 10.8982 4.60596 11.0448 5.72967L12.3573 7.79408C12.4436 7.93 12.4261 8.13242 12.2261 8.21875L11.0833 8.70758V10.4167C11.0833 10.7262 10.9604 11.0229 10.7416 11.2417C10.5228 11.4605 10.2261 11.5834 9.91665 11.5834H8.75057L8.74998 13.3334H3.49998V11.1786C3.49998 10.4902 3.24565 9.83867 2.77373 9.25067C2.22406 8.56435 1.87947 7.7367 1.77967 6.86308C1.67987 5.98946 1.82892 5.10542 2.20964 4.31281C2.59037 3.52021 3.18728 2.8513 3.93159 2.38315C4.67591 1.915 5.53735 1.66666 6.41665 1.66675ZM6.10748 5.0285C5.91499 4.84251 5.65715 4.73956 5.38949 4.74183C5.12183 4.7441 4.86577 4.85141 4.67646 5.04064C4.48715 5.22988 4.37974 5.48589 4.37736 5.75355C4.37498 6.02121 4.47782 6.2791 4.66373 6.47167L6.41665 8.22517L8.16957 6.47167C8.26705 6.37748 8.34479 6.26482 8.39827 6.14026C8.45174 6.0157 8.47988 5.88174 8.48103 5.7462C8.48218 5.61065 8.45632 5.47624 8.40497 5.35079C8.35362 5.22534 8.27779 5.11138 8.18192 5.01555C8.08606 4.91972 7.97206 4.84395 7.8466 4.79264C7.72113 4.74134 7.5867 4.71554 7.45116 4.71674C7.31561 4.71795 7.18166 4.74614 7.05713 4.79966C6.93259 4.85319 6.81996 4.93098 6.72582 5.0285L6.41665 5.33767L6.10748 5.0285Z" fill="#337357"/>
</svg>