<svg width="17" height="17" viewBox="0 0 17 17" fill="none" xmlns="http://www.w3.org/2000/svg">
<g clip-path="url(#clip0_926_16250)">
<path fill-rule="evenodd" clip-rule="evenodd" d="M4.64648 7.42343C5.04431 7.42343 5.42584 7.2654 5.70715 6.98409C5.98845 6.70279 6.14648 6.32126 6.14648 5.92343C6.14648 5.52561 5.98845 5.14408 5.70715 4.86277C5.42584 4.58147 5.04431 4.42343 4.64648 4.42343C4.24866 4.42343 3.86713 4.58147 3.58582 4.86277C3.30452 5.14408 3.14648 5.52561 3.14648 5.92343C3.14648 6.32126 3.30452 6.70279 3.58582 6.98409C3.86713 7.2654 4.24866 7.42343 4.64648 7.42343ZM7.64648 5.92343C7.64659 6.71496 7.33388 7.47445 6.77648 8.03643C7.34921 8.39674 7.82118 8.89645 8.14822 9.48881C8.47527 10.0812 8.6467 10.7468 8.64648 11.4234V12.9234C8.64648 13.4539 8.43577 13.9626 8.0607 14.3376C7.68563 14.7127 7.17692 14.9234 6.64648 14.9234H2.64648C2.11605 14.9234 1.60734 14.7127 1.23227 14.3376C0.857198 13.9626 0.646484 13.4539 0.646484 12.9234V11.4234C0.646484 9.99643 1.39348 8.74443 2.51648 8.03643C2.16944 7.68653 1.91394 7.25653 1.77257 6.78443C1.6312 6.31232 1.60831 5.81266 1.70592 5.32961C1.80354 4.84656 2.01865 4.39499 2.33224 4.01483C2.64584 3.63466 3.04826 3.33761 3.50394 3.14992C3.95961 2.96223 4.45451 2.88969 4.94488 2.93871C5.43525 2.98772 5.906 3.15679 6.31551 3.43097C6.72501 3.70514 7.06067 4.07597 7.29281 4.51069C7.52495 4.94541 7.64642 5.43062 7.64648 5.92343ZM2.14648 11.4234C2.14648 10.7604 2.40988 10.1245 2.87872 9.65567C3.34756 9.18683 3.98344 8.92343 4.64648 8.92343C5.30953 8.92343 5.94541 9.18683 6.41425 9.65567C6.88309 10.1245 7.14648 10.7604 7.14648 11.4234V12.9234C7.14648 13.056 7.09381 13.1832 7.00004 13.277C6.90627 13.3708 6.77909 13.4234 6.64648 13.4234H2.64648C2.51388 13.4234 2.3867 13.3708 2.29293 13.277C2.19916 13.1832 2.14648 13.056 2.14648 12.9234V11.4234ZM13.6465 10.9234C13.4476 10.9234 13.2568 10.8444 13.1162 10.7038C12.9755 10.5631 12.8965 10.3723 12.8965 10.1734V8.67343H11.3965C11.1976 8.67343 11.0068 8.59442 10.8662 8.45376C10.7255 8.31311 10.6465 8.12235 10.6465 7.92343C10.6465 7.72452 10.7255 7.53376 10.8662 7.3931C11.0068 7.25245 11.1976 7.17343 11.3965 7.17343H12.8965V5.67343C12.8965 5.47452 12.9755 5.28376 13.1162 5.1431C13.2568 5.00245 13.4476 4.92343 13.6465 4.92343C13.8454 4.92343 14.0362 5.00245 14.1768 5.1431C14.3175 5.28376 14.3965 5.47452 14.3965 5.67343V7.17343H15.8965C16.0954 7.17343 16.2862 7.25245 16.4268 7.3931C16.5675 7.53376 16.6465 7.72452 16.6465 7.92343C16.6465 8.12235 16.5675 8.31311 16.4268 8.45376C16.2862 8.59442 16.0954 8.67343 15.8965 8.67343H14.3965V10.1734C14.3965 10.3723 14.3175 10.5631 14.1768 10.7038C14.0362 10.8444 13.8454 10.9234 13.6465 10.9234Z" fill="#FAFAFA"/>
</g>
<defs>
<clipPath id="clip0_926_16250">
<rect width="16" height="16" fill="white" transform="translate(0.646484 0.923828)"/>
</clipPath>
</defs>
</svg>
