<svg width="83" height="83" viewBox="0 0 83 83" fill="none" xmlns="http://www.w3.org/2000/svg">
<g id="mingcute:doc-fill">
<path id="Vector" fill-rule="evenodd" clip-rule="evenodd" d="M12.25 14.5C12.25 12.7098 12.9612 10.9929 14.227 9.72703C15.4929 8.46116 17.2098 7.75 19 7.75H55.9315L70.75 22.5685V68.5C70.75 70.2902 70.0388 72.0071 68.773 73.273C67.5071 74.5388 65.7902 75.25 64 75.25H19C17.2098 75.25 15.4929 74.5388 14.227 73.273C12.9612 72.0071 12.25 70.2902 12.25 68.5V14.5ZM23.5 34.75H16.75V57.25H21.25V48.25H23.5C25.2902 48.25 27.0071 47.5388 28.273 46.273C29.5388 45.0071 30.25 43.2902 30.25 41.5C30.25 39.7098 29.5388 37.9929 28.273 36.727C27.0071 35.4612 25.2902 34.75 23.5 34.75ZM41.5 34.75H34.75V57.25H41.5C43.2902 57.25 45.0071 56.5388 46.273 55.273C47.5388 54.0071 48.25 52.2902 48.25 50.5V41.5C48.25 39.7098 47.5388 37.9929 46.273 36.727C45.0071 35.4612 43.2902 34.75 41.5 34.75ZM52.75 57.25V34.75H66.25V39.25H57.25V43.75H61.75V48.25H57.25V57.25H52.75Z" fill="#60696F"/>
</g>
</svg>
