<svg xmlns="http://www.w3.org/2000/svg" width="25" height="24" viewBox="0 0 25 24" fill="none">
  <path d="M18.2881 7H6.28809V3H18.2881V7ZM18.2881 12.5C18.5714 12.5 18.8091 12.404 19.0011 12.212C19.1931 12.02 19.2888 11.7827 19.2881 11.5C19.2874 11.2173 19.1914 10.98 19.0001 10.788C18.8088 10.596 18.5714 10.5 18.2881 10.5C18.0048 10.5 17.7674 10.596 17.5761 10.788C17.3848 10.98 17.2888 11.2173 17.2881 11.5C17.2874 11.7827 17.3834 12.0203 17.5761 12.213C17.7688 12.4057 18.0061 12.5013 18.2881 12.5ZM16.2881 19V15H8.28809V19H16.2881ZM18.2881 21H6.28809V17H2.28809V11C2.28809 10.15 2.57975 9.43767 3.16309 8.863C3.74642 8.28833 4.45475 8.00067 5.28809 8H19.2881C20.1381 8 20.8508 8.28767 21.4261 8.863C22.0014 9.43833 22.2888 10.1507 22.2881 11V17H18.2881V21Z" fill="#252525"/>
</svg>