<svg width="18" height="17" viewBox="0 0 18 17" fill="none" xmlns="http://www.w3.org/2000/svg">
<path d="M9 4.66688V7.33355M9 10.0002V10.0091M14.3333 1.11133C15.0406 1.11133 15.7189 1.39228 16.219 1.89238C16.719 2.39247 17 3.07075 17 3.77799V10.8891C17 11.5963 16.719 12.2746 16.219 12.7747C15.7189 13.2748 15.0406 13.5558 14.3333 13.5558H9.88889L5.44444 16.2224V13.5558H3.66667C2.95942 13.5558 2.28115 13.2748 1.78105 12.7747C1.28095 12.2746 1 11.5963 1 10.8891V3.77799C1 3.07075 1.28095 2.39247 1.78105 1.89238C2.28115 1.39228 2.95942 1.11133 3.66667 1.11133H14.3333Z" stroke="#4D5358" stroke-width="1.5" stroke-linecap="round" stroke-linejoin="round"/>
</svg>