<svg width="21" height="21" viewBox="0 0 21 21" fill="none" xmlns="http://www.w3.org/2000/svg">
<path d="M3.14648 5.42367H4.81315M4.81315 5.42367H18.1465M4.81315 5.42367L4.81315 17.0903C4.81315 17.5324 4.98875 17.9563 5.30131 18.2688C5.61387 18.5814 6.03779 18.757 6.47982 18.757H14.8132C15.2552 18.757 15.6791 18.5814 15.9917 18.2688C16.3042 17.9563 16.4798 17.5324 16.4798 17.0903V5.42367M7.31315 5.42367V3.757C7.31315 3.31497 7.48875 2.89105 7.80131 2.57849C8.11387 2.26593 8.53779 2.09033 8.97982 2.09033H12.3132C12.7552 2.09033 13.1791 2.26593 13.4917 2.57849C13.8042 2.89105 13.9798 3.31497 13.9798 3.757V5.42367M8.97982 9.59033V14.5903M12.3132 9.59033V14.5903" stroke="#BDC9D2" stroke-width="2" stroke-linecap="round" stroke-linejoin="round"/>
</svg>
