<svg xmlns="http://www.w3.org/2000/svg" width="18" height="18" viewBox="0 0 18 18" fill="none">
  <path d="M10.3333 8.25V12.75ZM7 8.25V12.75ZM3.66667 5.25V14.25C3.66667 14.6478 3.84226 15.0294 4.15482 15.3107C4.46738 15.592 4.89131 15.75 5.33333 15.75H12C12.442 15.75 12.866 15.592 13.1785 15.3107C13.4911 15.0294 13.6667 14.6478 13.6667 14.25V5.25M2 5.25H15.3333ZM4.5 5.25L6.16667 2.25H11.1667L12.8333 5.25" fill="#057E6F"/>
  <path d="M10.3333 8.25V12.75M7 8.25V12.75M3.66667 5.25V14.25C3.66667 14.6478 3.84226 15.0294 4.15482 15.3107C4.46738 15.592 4.89131 15.75 5.33333 15.75H12C12.442 15.75 12.866 15.592 13.1785 15.3107C13.4911 15.0294 13.6667 14.6478 13.6667 14.25V5.25M2 5.25H15.3333M4.5 5.25L6.16667 2.25H11.1667L12.8333 5.25" stroke="#EDF1F5" stroke-width="1.5" stroke-linecap="round" stroke-linejoin="round"/>
</svg>