<svg width="40" height="44" viewBox="0 0 40 44" fill="none" xmlns="http://www.w3.org/2000/svg">
<g clip-path="url(#clip0_3088_9972)">
<circle cx="20" cy="24" r="20" fill="#4B83F4" fill-opacity="0.2"/>
<g clip-path="url(#clip1_3088_9972)">
<path d="M29.2529 19.736C27.1815 16.0635 25.9584 10.7462 20.6277 10.217C13.6387 9.52479 7.10175 15.1915 8.8641 22.4845C9.78811 26.3066 14.0033 27.5885 13.6555 31.9683C13.5379 33.4484 12.3703 35.5501 13.9378 36.5632C15.5389 37.5998 20.8998 38.3087 22.511 37.4637C24.1305 36.6153 23.2368 33.4064 23.7374 31.886H26.6775C26.8656 31.886 27.5679 31.4576 27.7745 31.303C29.3773 30.1018 29.972 27.5666 29.4495 25.6716C30.5718 25.8228 31.3681 24.5006 31.4252 23.5295C31.4924 22.3636 29.8594 20.8096 29.2529 19.736ZM16.1033 20.8079C16.0412 21.0011 14.5325 22.5316 14.3696 22.6089C13.9747 22.7953 13.4019 22.75 13.0323 22.5198C12.7097 22.3182 12.6341 21.9889 12.4778 21.8965C12.0763 21.6596 11.0784 21.8226 10.8381 21.0179C10.482 19.8267 11.1489 19.82 11.3892 19.2858C11.5941 18.8288 11.3321 18.0341 12.0982 17.8107C12.6106 17.6612 12.9298 17.9115 13.2759 17.8997C13.674 17.8846 13.9344 17.4058 14.7156 17.6444C15.5456 17.8964 15.349 18.8826 15.5489 19.2488C15.7707 19.6554 16.4847 19.6067 16.1033 20.8096V20.8079ZM22.4354 12.6093C23.608 12.9168 23.2989 14.1163 23.6064 14.5481C23.692 14.669 24.3506 14.7816 24.5892 15.1613C24.8563 15.588 24.6547 16.05 24.7706 16.2399C24.8277 16.334 25.4006 16.3272 25.6291 16.8077C26.0239 17.641 25.4594 18.0241 25.4762 18.3617C25.4914 18.6944 26.8455 19.6621 25.9802 19.9376C25.1654 20.198 25.0545 19.447 24.6278 19.321C24.1742 19.1883 23.6904 19.4134 23.2401 19.0287C22.6857 18.5566 23.0116 17.6091 22.8806 17.4545C22.8453 17.4125 22.217 17.3907 21.886 17.0228C21.4811 16.5725 21.6676 16.1038 21.4677 15.7627C21.3534 15.5695 20.9402 15.4872 20.6814 15.0386C19.9103 13.698 20.7805 12.1742 22.4371 12.6076L22.4354 12.6093ZM22.0355 27.1617C20.9435 27.8556 19.0014 24.3443 20.0565 22.9163C20.3017 22.5853 20.8646 22.5165 21.219 22.7315C21.7163 23.0322 22.4337 26.9081 22.0339 27.1617H22.0355ZM25.9265 26.5519C25.0008 27.6893 21.4626 29.3844 23.0671 26.3436C22.6067 26.3805 22.5513 26.3385 22.4018 25.9168C22.1313 25.1558 22.301 22.2309 22.8201 21.6462C23.3073 21.0985 24.3372 21.2111 24.5421 21.9285C24.8328 22.9365 24.3422 24.052 24.0734 25.0012C25.5686 23.805 27.2235 24.9592 25.9248 26.5536L25.9265 26.5519Z" fill="#417EFA"/>
<path d="M13.995 20.6318C13.9429 20.6839 13.1953 20.5998 12.9853 20.6318C12.7064 18.7569 14.5259 20.1026 13.995 20.6318Z" fill="#E4EDFF"/>
</g>
</g>
<defs>
<clipPath id="clip0_3088_9972">
<rect width="40" height="39.5565" fill="white" transform="translate(0 4)"/>
</clipPath>
<clipPath id="clip1_3088_9972">
<rect width="22.8534" height="27.6802" fill="white" transform="translate(8.57324 10.1602)"/>
</clipPath>
</defs>
</svg>
